<svg xmlns="http://www.w3.org/2000/svg" width="128" height="128" viewBox="0 0 48 48" aria-hidden="true" focusable="false">
  <path fill="#06B6D4" d="M24 10c-6 0-9.6 3.2-10.8 9.6c2.4-3.2 5.2-4.4 8.4-3.6c1.82.45 3.12 1.78 4.55 3.24C28.2 21.36 30 23.2 33.6 23.2c6 0 9.6-3.2 10.8-9.6c-2.4 3.2-5.2 4.4-8.4 3.6c-1.82-.45-3.12-1.78-4.55-3.24C28.8 11.84 27 10 23.4 10H24zM13.2 24.8c-6 0-9.6 3.2-10.8 9.6c2.4-3.2 5.2-4.4 8.4-3.6c1.82.45 3.12 1.78 4.55 3.24c2.05 2.12 3.85 3.96 7.45 3.96c6 0 9.6-3.2 10.8-9.6c-2.4 3.2-5.2 4.4-8.4 3.6c-1.82-.45-3.12-1.78-4.55-3.24c-2.05-2.12-3.85-3.96-7.45-3.96z"/>
</svg>

